HIERARCHY
ROOT Hips
{
  OFFSET 0 0 0
  CHANNELS 6 Xposition Yposition Zposition Zrotation Yrotation Xrotation
  JOINT LeftThigh
  {
    OFFSET 8.409438 0 -5.917753
    CHANNELS 3 Zrotation Yrotation Xrotation
    JOINT LeftLeg
    {
      OFFSET 0 0 -42.358652
      CHANNELS 3 Zrotation Yrotation Xrotation
      JOINT LeftFoot
      {
        OFFSET 0 0 -39.357303
        CHANNELS 3 Zrotation Yrotation Xrotation
      }
    }
  }
  JOINT RightThigh
  {
    OFFSET -8.409438 0 -5.917753
    CHANNELS 3 Zrotation Yrotation Xrotation
    JOINT RightLeg
    {
      OFFSET 0 0 -42.358652
      CHANNELS 3 Zrotation Yrotation Xrotation
      JOINT RightFoot
      {
        OFFSET 0 0 -39.357303
        CHANNELS 3 Zrotation Yrotation Xrotation
      }
    }
  }
  JOINT SpineLow
  {
    OFFSET 0 0 4.719101
    CHANNELS 3 Zrotation Yrotation Xrotation
    JOINT SpineMid
    {
      OFFSET 0 0 12.899191
      CHANNELS 3 Zrotation Yrotation Xrotation
      JOINT Chest
      {
        OFFSET 0 0 12.899191
        CHANNELS 3 Zrotation Yrotation Xrotation
        JOINT LeftShoulder
        {
          OFFSET 7.550562 1.41573 9.438202
          CHANNELS 3 Zrotation Yrotation Xrotation
          JOINT LeftArm
          {
            OFFSET 9.155056 0 4.247191
            CHANNELS 3 Zrotation Yrotation Xrotation
            JOINT LeftForearm
            {
              OFFSET 0 0 25.771955
              CHANNELS 3 Zrotation Yrotation Xrotation
              JOINT LeftHand
              {
                OFFSET 0 0 25.197169
                CHANNELS 3 Zrotation Yrotation Xrotation
              }
            }
          }
        }
        JOINT RightShoulder
        {
          OFFSET -7.550562 1.41573 9.438202
          CHANNELS 3 Zrotation Yrotation Xrotation
          JOINT RightArm
          {
            OFFSET -9.155056 0 4.247191
            CHANNELS 3 Zrotation Yrotation Xrotation
            JOINT RightForearm
            {
              OFFSET 0 0 -25.771955
              CHANNELS 3 Zrotation Yrotation Xrotation
              JOINT RightHand
              {
                OFFSET 0 0 -25.197169
                CHANNELS 3 Zrotation Yrotation Xrotation
              }
            }
          }
        }
        JOINT Neck
        {
          OFFSET 0 0 15.101124
          CHANNELS 3 Zrotation Yrotation Xrotation
          JOINT Head
          {
            OFFSET 0 0 11.325843
            CHANNELS 3 Zrotation Yrotation Xrotation
            End Site
            {
              OFFSET 0 0 14.157303
            }
          }
        }
      }
    }
  }
}
MOTION
Frames: 14
Frame Time: 0.0
0.0  93.25843  0.0  -2.475603  -44.649202  -91.46145  44.997781  -26.114101  -41.069375  -2.859035  7.899208  38.624526  7.599319  0.877969  4.985133  -15.539023  18.014123  -14.171465  1.965928  11.62024  28.687494  0.941339  0.17307  0.292408  3.565702  0.488403  0.829983  9.762949  1.2093  2.335159  9.762949  1.2093  2.335159  -21.1698  13.245522  3.192213  -129.287282  68.59443  -68.577297  -47.842614  7.743236  71.333622  87.306623  -10.637712  -21.666817  -1.198903  -13.87585  21.137212  106.830403  35.285843  40.256009  -11.693803  -18.190598  -114.826875  65.140947  -11.460045  -27.00378  12.658944  -0.672459  5.005007  9.500361  -0.400881  3.769563  
0.0  93.25843  0.0  -2.392324  -44.310993  -91.368164  45.278369  -25.81043  -41.328866  -3.103412  7.960094  38.464777  7.5134  0.852022  4.96308  -16.127801  17.838452  -14.389525  1.042973  12.77391  28.63792  2.168662  -0.094379  0.337384  3.476846  0.464237  0.754292  9.517936  1.157505  2.123735  9.517936  1.157505  2.123735  -21.487883  13.912216  3.097483  -129.295614  69.10806  -68.595792  -48.162596  7.200915  71.155404  87.423791  -10.865679  -21.863229  -1.451496  -13.802888  21.270026  105.904645  35.79629  39.901561  -11.294494  -17.644445  -114.86964  65.257934  -11.202037  -27.106931  12.648658  -0.682146  5.398885  9.493286  -0.40008  4.065303  
0.0  93.25843  0.0  -2.197201  -43.857809  -91.33746  45.20171  -25.597833  -41.437823  -2.895477  7.965313  38.445064  7.145038  0.870437  4.72761  -16.336623  18.075432  -14.447394  0.430115  13.196009  28.640905  3.022427  -0.342519  0.188337  3.377695  0.412321  0.674816  9.243968  1.030292  1.898061  9.243968  1.030292  1.898062  -21.436812  14.873068  3.380203  -128.931779  69.270749  -67.962212  -48.332722  6.847062  71.050046  87.559719  -11.038326  -22.066187  -1.466337  -13.495618  21.641286  104.880939  36.349882  39.421344  -11.19149  -16.927289  -114.963477  64.589143  -11.036291  -27.028673  12.657648  -0.520055  5.758689  9.499072  -0.270903  4.331965  
0.0  93.25843  0.0  -1.966012  -43.335951  -91.306882  44.902842  -25.491053  -41.451971  -2.424941  7.949113  38.391133  7.027346  0.783798  4.71671  -15.940171  18.386599  -14.232937  -0.070128  13.023854  28.785845  3.059558  -0.29077  -0.114168  3.280215  0.336805  0.583127  8.974113  0.839628  1.636255  8.974113  0.839628  1.636255  -21.107749  15.864292  4.009416  -128.707789  69.023828  -67.339301  -48.368235  6.782266  71.068201  87.773672  -11.149167  -22.281977  -1.375263  -13.047534  22.138055  104.130552  36.624153  38.887096  -11.520255  -16.311575  -115.05158  63.406131  -11.013436  -26.75172  12.687472  -0.251109  6.053279  9.519187  -0.062667  4.547493  
0.0  93.25843  0.0  -1.701546  -42.822807  -91.268873  44.155621  -25.385168  -41.491198  -1.612876  7.777739  38.481133  6.859171  0.677043  4.725544  -15.277561  18.588367  -13.982834  -0.5404  12.775142  28.902655  2.775787  -0.054714  -0.348236  3.191805  0.247809  0.480451  8.729242  0.612645  1.343339  8.729241  0.612645  1.343339  -20.616203  16.898737  4.764011  -128.806414  68.693712  -66.940019  -48.321058  6.800711  71.189654  88.026859  -11.186754  -22.476449  -1.197391  -12.520419  22.716607  103.778252  36.636003  38.380531  -12.223245  -15.882719  -115.079412  62.142715  -11.048389  -26.333637  12.75063  0.067695  6.29028  9.563482  0.182165  4.718737  
0.0  93.25843  0.0  -1.415568  -42.287686  -91.277081  43.608049  -25.255728  -41.314821  -0.998341  7.616981  38.407822  6.65373  0.607227  4.685803  -14.816681  18.749353  -13.812797  -0.917666  12.753041  28.840909  2.396365  0.025749  -0.375565  3.123597  0.165624  0.392932  8.540571  0.401147  1.093361  8.54057  0.401147  1.093361  -20.227001  17.755661  5.369337  -129.554062  68.432131  -67.198244  -48.1517  6.760507  71.433826  88.262416  -11.148138  -22.612419  -1.011824  -12.018039  23.324285  103.650498  36.661281  37.867427  -13.032185  -15.625704  -115.013478  61.0079  -11.02777  -25.825041  12.775944  0.356754  6.442424  9.579437  0.402546  4.826849  
0.0  93.25843  0.0  -0.702939  -42.276289  -91.63391  43.418261  -24.920724  -40.85042  -0.579833  7.603819  38.192005  6.612731  0.507844  4.750116  -14.107855  19.276419  -13.560809  -1.096433  12.833135  28.488183  1.952314  -0.265856  -0.249355  3.173267  0.144932  0.348757  8.675767  0.349662  0.970409  8.675767  0.349662  0.970409  -20.269671  18.293882  5.70797  -130.804287  68.161235  -68.178422  -47.793976  6.594976  71.829809  88.441297  -11.058097  -22.559373  -0.95529  -11.572438  23.799399  103.614764  36.747125  37.319479  -13.732521  -15.526695  -114.917192  60.122234  -10.957869  -25.245231  12.26824  0.474164  6.318522  9.197399  0.482788  4.73161  
0.0  93.25843  0.0  -0.369636  -41.648652  -91.703367  42.805339  -24.591308  -40.669511  -0.348491  7.558959  38.095607  6.561839  0.409719  4.70963  -14.107153  19.527516  -13.135847  -0.964538  12.907998  27.925709  1.922724  -0.377354  -0.176021  3.182901  0.094059  0.305595  8.701199  0.216416  0.846017  8.701199  0.216416  0.846017  -20.370298  18.847755  6.079403  -132.265914  68.055881  -69.063537  -47.188353  6.133721  72.423223  88.531279  -10.827025  -22.26122  -1.071109  -11.173296  24.219165  103.401117  36.932526  36.717225  -14.199668  -15.503285  -114.874881  59.560449  -10.783494  -24.656395  11.996518  0.667781  6.318766  8.991531  0.625266  4.728075  
0.0  93.25843  0.0  -0.002361  -41.161082  -91.797304  42.470801  -24.192581  -40.517187  -0.231614  7.543508  38.064641  6.418942  0.410156  4.521765  -13.9063  19.714725  -12.664582  -0.710071  12.864075  27.387573  1.721694  -0.401221  -0.068922  3.116191  -0.016466  0.222073  8.517565  -0.073501  0.603736  8.517565  -0.073501  0.603736  -19.846525  19.820382  6.664167  -133.656395  68.032791  -69.943558  -46.431334  5.323392  73.143552  88.466526  -10.381697  -21.892414  -0.669446  -10.426798  24.851904  103.104242  37.07938  36.150635  -14.3658  -15.590952  -114.94546  59.427533  -10.529201  -24.229628  11.530116  0.888831  6.325054  8.63932  0.786412  4.728923  
0.0  93.25843  0.0  0.214097  -40.400476  -91.717276  42.000941  -23.713312  -40.597766  -0.179752  7.519357  37.99593  6.51826  0.432762  4.515153  -13.754514  19.797839  -12.217339  -0.428837  12.786003  26.885412  1.177244  -0.321609  0.051168  3.139832  -0.07966  0.15794  8.581887  -0.237801  0.420549  8.581887  -0.237801  0.420549  -20.171737  20.413929  7.045118  -134.545325  68.284879  -70.322954  -45.809648  4.449315  73.701547  88.297066  -9.881702  -21.606914  -0.852428  -10.001971  25.247743  102.432977  37.491685  35.450889  -14.386846  -15.685409  -115.076451  59.505064  -10.273357  -24.080542  11.150562  1.053557  6.364288  8.352797  0.906783  4.755737  
0.0  93.25843  0.0  0.350466  -39.802725  -91.63599  41.882778  -23.276805  -40.702468  -0.122093  7.428652  38.013477  6.487146  0.553981  4.452057  -13.236927  19.820984  -11.657741  -0.266637  12.800854  26.364313  0.768071  -0.202783  0.13394  3.188134  -0.150364  0.086932  8.714002  -0.421628  0.217353  8.714002  -0.421628  0.217353  -20.526512  20.983078  7.457114  -134.798194  68.663718  -70.10228  -45.469085  3.961101  74.016769  88.306381  -9.384187  -21.565714  -2.048841  -9.775521  25.258172  102.813766  37.365421  35.264072  -14.34595  -15.712128  -115.210655  59.559988  -10.05184  -24.161927  10.725135  1.174783  6.43506  8.032264  0.99453  4.807265  
0.0  93.25843  0.0  0.39353  -38.931005  -91.417493  41.606772  -22.69217  -40.986447  -0.182183  7.392978  38.014014  6.537873  0.603154  4.408133  -12.914258  19.850874  -11.057818  -0.384142  12.824701  25.732144  0.272186  -0.167667  0.277507  3.211136  -0.209508  0.006527  8.777465  -0.572375  -0.009979  8.777465  -0.572375  -0.009979  -20.932712  21.478004  7.877158  -134.520512  69.002038  -69.375369  -45.446365  3.696294  73.930425  88.176637  -9.171382  -21.502406  -2.139984  -9.452451  25.765815  101.817667  38.329028  34.408796  -14.190593  -15.806475  -115.355484  59.556707  -9.845142  -24.193822  10.281483  1.257552  6.51545  7.69844  1.053287  4.866868  
0.0  93.25843  0.0  0.499191  -38.612987  -91.435694  41.952987  -22.145439  -41.092494  -0.253884  7.386015  38.036731  6.572919  0.626012  4.355412  -11.759917  20.036176  -10.124293  -0.792358  12.847121  24.974119  0.297097  0.125858  0.29099  3.325616  -0.255535  -0.031813  9.09088  -0.692594  -0.121865  9.09088  -0.692594  -0.121865  -21.351226  21.819382  8.190154  -134.283598  69.199423  -68.670221  -45.609877  3.658911  73.535805  88.006337  -9.096663  -21.571624  -2.403193  -9.26972  26.059563  101.121162  39.233125  33.645665  -13.955187  -15.998009  -115.524638  59.402817  -9.606927  -23.890374  9.773049  1.323792  6.567573  7.316242  1.098365  4.905778  
0.0  93.25843  0.0  0.428531  -37.638487  -91.126585  41.830407  -21.454588  -41.456073  -0.372245  7.396304  38.029455  6.577433  0.604337  4.313015  -11.253182  20.128294  -9.342506  -1.487159  12.804325  24.147662  -0.22667  0.248049  0.462109  3.373251  -0.288194  -0.106977  9.222085  -0.771085  -0.331914  9.222086  -0.771085  -0.331914  -21.977407  21.96187  8.336915  -134.767511  69.457124  -68.594736  -46.01382  3.620435  72.819069  87.791628  -9.141957  -21.901213  -2.448285  -9.21845  26.397238  100.162937  40.416157  32.621839  -13.804759  -16.314265  -115.655143  59.150851  -9.301792  -23.189792  9.170148  1.353159  6.636019  6.863563  1.114906  4.957802  
